<?xml version="1.0" standalone="no"?>
<!DOCTYPE svg PUBLIC "-//W3C//DTD SVG 20010904//EN"
 "http://www.w3.org/TR/2001/REC-SVG-20010904/DTD/svg10.dtd">
<svg version="1.0" xmlns="http://www.w3.org/2000/svg"
 width="598.000000pt" height="598.000000pt" viewBox="0 0 598.000000 598.000000"
 preserveAspectRatio="xMidYMid meet">
<metadata>
Created by potrace 1.11, written by Peter Selinger 2001-2013
</metadata>
<g transform="translate(0.000000,598.000000) scale(0.100000,-0.100000)"
fill="#000000" stroke="none">
<path d="M2404 5665 c-106 -32 -192 -104 -240 -202 -24 -48 -29 -72 -31 -144
-2 -99 -11 -67 142 -519 l118 -345 -164 -659 c-153 -614 -166 -659 -188 -667
-13 -5 -25 -8 -26 -7 -2 2 -137 336 -300 743 -163 407 -306 759 -318 783 -28
58 -91 117 -157 150 -46 22 -69 27 -135 27 -67 0 -89 -4 -135 -27 -68 -33
-128 -92 -161 -155 -20 -40 -24 -62 -24 -133 0 -78 7 -105 79 -330 312 -980
500 -1604 520 -1725 8 -51 11 -129 8 -215 -3 -74 -5 -227 -5 -340 0 -229 14
-329 75 -510 189 -559 681 -975 1283 -1085 78 -15 92 -16 245 -20 139 -5 319
8 420 29 14 3 39 8 55 12 43 9 119 32 200 62 525 190 881 678 959 1312 13 108
15 465 2 530 -2 14 -7 48 -11 75 -3 28 -14 111 -25 187 -18 126 -20 216 -6
278 3 14 8 43 11 65 10 73 156 823 190 976 2 9 6 34 9 55 4 22 9 47 12 56 5
18 8 28 29 133 7 39 28 135 45 215 113 522 122 572 116 658 -8 131 -61 229
-159 295 -146 99 -341 83 -460 -37 -75 -77 -61 -37 -318 -876 -55 -179 -154
-503 -220 -720 -135 -443 -145 -472 -153 -450 -3 8 -23 69 -45 135 -61 186
-170 489 -354 984 -80 213 -83 225 -75 275 10 66 55 349 63 401 4 22 12 65 19
96 14 64 13 155 -3 215 -15 54 -81 155 -123 187 -71 54 -125 71 -233 72 l-100
0 -55 56 c-103 103 -247 143 -376 104z m205 -160 c36 -20 54 -36 73 -64 16
-23 16 -25 -17 -65 -52 -63 -80 -131 -110 -258 -14 -65 -26 -119 -25 -120 1
-2 -3 -16 -9 -31 -6 -15 -13 -40 -16 -55 -3 -15 -16 -67 -28 -117 l-23 -90
-67 200 c-36 110 -77 231 -91 270 -34 93 -34 164 0 233 29 58 94 108 153 118
20 3 41 7 46 8 16 4 85 -13 114 -29z m437 -163 c94 -48 135 -148 112 -271 -5
-25 -40 -248 -78 -496 -39 -247 -80 -508 -91 -580 -11 -71 -23 -143 -25 -160
-2 -16 -6 -41 -9 -55 -2 -14 -7 -45 -10 -70 -3 -25 -8 -56 -11 -70 -2 -14 -6
-38 -8 -55 -4 -26 -18 -120 -41 -260 -4 -22 -8 -49 -9 -60 -2 -11 -7 -45 -11
-75 -12 -76 -10 -98 10 -120 22 -25 53 -29 87 -13 28 14 33 23 43 93 4 25 9
54 11 65 2 10 6 37 9 60 17 114 62 413 69 450 3 15 8 49 12 74 4 25 8 55 10
66 2 11 6 38 10 60 18 129 41 247 47 238 10 -15 191 -524 282 -793 42 -124 84
-244 92 -267 49 -141 190 -165 267 -46 13 21 61 160 106 308 45 149 145 475
222 725 77 250 157 511 178 580 111 364 114 371 164 419 55 53 146 69 232 41
72 -24 133 -126 129 -215 -3 -44 -5 -57 -41 -230 -14 -66 -27 -130 -30 -142
-2 -12 -25 -120 -50 -240 -25 -120 -48 -229 -50 -243 -3 -14 -18 -90 -35 -170
-26 -127 -100 -494 -113 -561 -2 -13 -11 -60 -20 -104 -9 -44 -18 -91 -20
-105 -2 -14 -13 -77 -25 -140 -11 -63 -22 -128 -25 -145 -2 -16 -8 -50 -12
-75 -10 -68 -7 -164 10 -279 21 -139 21 -139 -6 -114 -91 83 -221 123 -416
128 -186 5 -485 33 -511 49 -3 2 -24 7 -46 10 -52 9 -143 32 -235 61 -253 79
-428 169 -741 381 -92 62 -189 120 -216 130 l-49 17 63 251 c35 138 65 260 67
271 2 11 43 175 91 365 48 190 88 354 91 365 2 11 49 199 103 417 116 463 127
489 226 537 50 24 137 21 191 -7z m-1854 -689 c17 -10 39 -29 50 -43 10 -14
102 -235 204 -490 102 -256 191 -478 199 -495 23 -52 175 -437 201 -509 l24
-70 -34 -35 c-19 -20 -47 -63 -63 -96 -78 -168 9 -467 220 -754 62 -84 272
-288 366 -355 205 -147 479 -268 771 -341 52 -13 109 -26 125 -29 17 -2 53 -9
80 -14 28 -6 75 -13 105 -17 30 -3 62 -8 70 -10 8 -2 47 -7 85 -10 39 -3 97
-7 130 -10 129 -10 300 -9 322 3 45 24 42 103 -5 120 -15 6 -99 13 -187 17
-88 3 -178 8 -200 10 -22 2 -64 7 -94 10 -436 46 -832 184 -1122 391 -106 76
-268 237 -340 339 -122 172 -211 382 -212 500 -1 122 77 208 209 233 92 16
105 10 359 -157 231 -153 209 -139 325 -199 160 -84 320 -146 500 -196 89 -24
299 -65 372 -71 37 -3 77 -8 90 -10 13 -3 93 -7 178 -10 234 -8 258 -12 335
-50 92 -44 165 -135 206 -255 17 -46 19 -76 15 -205 -17 -566 -285 -1030 -729
-1260 -89 -46 -247 -103 -327 -119 -14 -2 -47 -9 -75 -15 -120 -23 -347 -33
-460 -19 -118 14 -131 16 -215 36 -525 125 -948 522 -1096 1028 -46 158 -54
239 -48 494 10 427 8 456 -48 650 -98 342 -362 1200 -521 1695 -60 185 -54
248 27 310 60 46 138 49 208 8z"/>
</g>
</svg>
